<?xml version="1.0" encoding="UTF-8" standalone="no"?>
<svg viewBox="0 0 22 24" version="1.1" xmlns="http://www.w3.org/2000/svg" xmlns:xlink="http://www.w3.org/1999/xlink">
    <title>ic_share</title>
    <desc>Share Icon</desc>
    <g id="Page-1" stroke="none" stroke-width="1" fill="none" fill-rule="evenodd">
        <g id="Ãcones" transform="translate(-914.000000, -808.000000)" fill="#333333">
            <g id="ic_share" transform="translate(914.000000, 808.000000)">
                <path d="M15.7108434,17.8915663 L7.12048193,12.8915663 C7.18072289,12.6144578 7.22891566,12.3373494 7.22891566,12.0481928 C7.22891566,11.7590361 7.18072289,11.4819277 7.12048193,11.2048193 L15.6144578,6.25301205 C16.2650602,6.85542169 17.1204819,7.22891566 18.0722892,7.22891566 C20.0722892,7.22891566 21.686747,5.61445783 21.686747,3.61445783 C21.686747,1.61445783 20.0722892,0 18.0722892,0 C16.0722892,0 14.4578313,1.61445783 14.4578313,3.61445783 C14.4578313,3.90361446 14.5060241,4.18072289 14.5662651,4.45783133 L6.07228916,9.40963855 C5.42168675,8.80722892 4.56626506,8.43373494 3.61445783,8.43373494 C1.61445783,8.43373494 0,10.0481928 0,12.0481928 C0,14.0481928 1.61445783,15.6626506 3.61445783,15.6626506 C4.56626506,15.6626506 5.42168675,15.2891566 6.07228916,14.686747 L14.6506024,19.6987952 C14.5903614,19.9518072 14.5542169,20.2168675 14.5542169,20.4819277 C14.5542169,22.4216867 16.1325301,24 18.0722892,24 C20.0120482,24 21.5903614,22.4216867 21.5903614,20.4819277 C21.5903614,18.5421687 20.0120482,16.9638554 18.0722892,16.9638554 C17.1566265,16.9638554 16.3373494,17.3253012 15.7108434,17.8915663 Z" id="Fill-95"></path>
            </g>
        </g>
    </g>
</svg>
